<svg id="Layer_1" data-name="Layer 1" xmlns="http://www.w3.org/2000/svg" viewBox="0 0 2000 2000"><defs><style>.cls-1{fill:#ec4d2c;}.cls-2{fill:#1f4072;}</style></defs><polygon class="cls-1" points="953.45 972.55 884.12 906.66 883.99 906.75 929.74 1016.9 940.46 1042.71 964.2 1023.29 1194.47 834.92 953.45 972.55"/><path class="cls-2" d="M701.17,948H630.51l-37.25,211.88H500.51L538,948H466.48l14.24-78.22h234.7Z"/><path class="cls-2" d="M784,940.42c58,0,87.84,23,87.84,71.53a153.55,153.55,0,0,1-2.58,26.87l-21.21,121h-76l-4.14-21.16c-5.71,11.43-26.61,26.09-58.35,26.09-32.72,0-52.21-23-52.21-58.53a114.43,114.43,0,0,1,2-20.62c6.67-36.94,32.74-57.6,88.46-57.6h39.3l.29-1.68a35.48,35.48,0,0,0,.57-6c0-12.71-9.34-17.27-33.15-17.27-24.49,0-51.37,4.1-65.09,10.27l22.88-65.42c14.87-4.11,41.88-7.46,71.4-7.46Zm-33.62,166.72c13.62,0,23-5.46,26.22-18.53l3.51-20.22H759c-12.49,0-20.4,6.38-22.51,19.75a29.72,29.72,0,0,0-.3,4.08c0,9.65,5.52,14.92,14.22,14.92Z"/><path class="cls-2" d="M1154.63,940.42c58,0,87.84,23,87.84,71.53a153.55,153.55,0,0,1-2.58,26.87l-21.21,121h-76l-4.14-21.16c-5.71,11.43-26.61,26.09-58.35,26.09-32.72,0-52.21-23-52.21-58.53a113.58,113.58,0,0,1,2-20.62c6.67-36.94,32.74-57.6,88.45-57.6h39.3l.29-1.68a35.48,35.48,0,0,0,.57-6c0-12.71-9.34-17.27-33.15-17.27-24.49,0-51.37,4.1-65.09,10.27l22.89-65.42c14.86-4.11,41.87-7.46,71.39-7.46ZM1121,1107.14c13.62,0,23-5.46,26.22-18.53l3.51-20.22H1129.6c-12.49,0-20.4,6.38-22.51,19.75a29.72,29.72,0,0,0-.3,4.08c0,9.65,5.53,14.92,14.22,14.92Z"/><path class="cls-2" d="M1420.25,945.76l-8.58,69.11c-4.2-3.35-16.66-6.74-30.45-6.74-23.7,0-41.29,13.34-46.28,42.1l-19.19,109.61h-86.63l38.09-215.32h78.36l4.28,20c11.19-15,27.47-24.91,47.41-24.91C1408.15,939.58,1416.88,942.48,1420.25,945.76Z"/><path class="cls-2" d="M1434,944.52h86.63l-38.09,215.32h-86.63Zm13.28-74.77h86.26l-8.71,48.49h-86.26Z"/><path class="cls-2" d="M964.2,1023.29l-4.7,3.84-19,15.71,14.57,35c-10.77,24.22-22.07,32.3-40.37,32.3-13.46,0-26.38-4.31-38.22-10.77l-22.07,48.45c19.91,10.77,40.37,17.23,67.29,17.23,45.75,0,71-21.53,93.67-79.67l58.82-152.1Z"/></svg>